<svg width="31" height="25" viewBox="0 0 31 25" fill="none" xmlns="http://www.w3.org/2000/svg">
<path d="M0.260492 10.2294C0.260492 8.93882 0.502967 7.73036 0.987917 6.60402C1.47287 5.46987 2.14554 4.47259 3.00594 3.61219C3.86633 2.7518 4.8597 2.07913 5.98603 1.59418C7.12019 1.10923 8.33256 0.866752 9.62316 0.866752C10.9137 0.866752 12.1261 1.10923 13.2603 1.59418C14.3944 2.07913 15.3878 2.7518 16.2404 3.61219C17.1008 4.47259 17.7734 5.46987 18.2584 6.60402C18.7433 7.73036 18.9858 8.93882 18.9858 10.2294C18.9858 11.301 18.8137 12.3178 18.4696 13.2799C18.1332 14.242 17.6639 15.1141 17.0617 15.8963L23.5146 22.3727C23.632 22.49 23.7219 22.6308 23.7845 22.7951C23.8549 22.9672 23.8901 23.1471 23.8901 23.3348C23.8901 23.5929 23.8314 23.8276 23.7141 24.0388C23.6046 24.2499 23.4481 24.4142 23.2448 24.5315C23.0414 24.6567 22.8068 24.7193 22.5408 24.7193C22.3531 24.7193 22.1771 24.688 22.0128 24.6254C21.8486 24.5628 21.6961 24.4611 21.5553 24.3203L15.0671 17.8322C14.3006 18.3797 13.4558 18.8099 12.5329 19.1228C11.6177 19.4356 10.6478 19.5921 9.62316 19.5921C8.33256 19.5921 7.12019 19.3496 5.98603 18.8647C4.8597 18.3797 3.86633 17.707 3.00594 16.8466C2.14554 15.9862 1.47287 14.9929 0.987917 13.8665C0.502967 12.7324 0.260492 11.52 0.260492 10.2294ZM2.26678 10.2294C2.26678 11.2462 2.45841 12.2005 2.84168 13.0922C3.22494 13.976 3.75291 14.7543 4.42559 15.427C5.09826 16.0997 5.87653 16.6276 6.76039 17.0109C7.65207 17.3942 8.60633 17.5858 9.62316 17.5858C10.64 17.5858 11.5903 17.3942 12.4742 17.0109C13.3659 16.6276 14.1481 16.0997 14.8207 15.427C15.5012 14.7543 16.0292 13.976 16.4046 13.0922C16.7879 12.2005 16.9795 11.2462 16.9795 10.2294C16.9795 9.21259 16.7879 8.26224 16.4046 7.37838C16.0292 6.4867 15.5012 5.70452 14.8207 5.03185C14.1481 4.35135 13.3659 3.82338 12.4742 3.44794C11.5903 3.06467 10.64 2.87304 9.62316 2.87304C8.60633 2.87304 7.65207 3.06467 6.76039 3.44794C5.87653 3.82338 5.09826 4.35135 4.42559 5.03185C3.75291 5.70452 3.22494 6.4867 2.84168 7.37838C2.45841 8.26224 2.26678 9.21259 2.26678 10.2294ZM5.9039 9.49026C5.66925 9.49026 5.4737 9.40813 5.31727 9.24387C5.16866 9.07962 5.09435 8.88407 5.09435 8.65724C5.09435 8.43041 5.16866 8.23877 5.31727 8.08234C5.4737 7.9259 5.66925 7.84769 5.9039 7.84769H13.3424C13.5771 7.84769 13.7726 7.9259 13.929 8.08234C14.0855 8.23877 14.1637 8.43041 14.1637 8.65724C14.1637 8.88407 14.0855 9.07962 13.929 9.24387C13.7726 9.40813 13.5771 9.49026 13.3424 9.49026H5.9039ZM5.9039 12.6111C5.66925 12.6111 5.4737 12.5329 5.31727 12.3765C5.16866 12.2201 5.09435 12.0284 5.09435 11.8016C5.09435 11.5748 5.16866 11.3792 5.31727 11.215C5.4737 11.0507 5.66925 10.9686 5.9039 10.9686H11.3127C11.5395 10.9686 11.7311 11.0507 11.8876 11.215C12.0518 11.3792 12.1339 11.5748 12.1339 11.8016C12.1339 12.0284 12.0518 12.2201 11.8876 12.3765C11.7311 12.5329 11.5395 12.6111 11.3127 12.6111H5.9039ZM27.011 1.7467C28.239 1.7467 29.158 2.05175 29.7681 2.66185C30.3861 3.26413 30.695 4.17145 30.695 5.38383V19.7094C30.695 20.9218 30.3861 21.8291 29.7681 22.4314C29.158 23.0415 28.239 23.3465 27.011 23.3465H25.1689C25.1689 22.9867 25.1024 22.6426 24.9695 22.3141C24.8443 21.9934 24.6566 21.7079 24.4063 21.4576H26.9758C27.5546 21.4576 28.0043 21.305 28.325 21C28.6457 20.6871 28.8061 20.2256 28.8061 19.6155V5.47769C28.8061 4.86759 28.6457 4.41002 28.325 4.10497C28.0043 3.7921 27.5546 3.63566 26.9758 3.63566H13.2955V1.7467H27.011ZM6.73692 21.4576H16.9443L18.8333 23.3465H6.70172C5.48153 23.3465 4.56247 23.0415 3.94455 22.4314C3.32663 21.8291 3.01767 20.9218 3.01767 19.7094V16.1779H4.90663V19.6155C4.90663 20.2256 5.06306 20.6871 5.37593 21C5.69663 21.305 6.15029 21.4576 6.73692 21.4576Z" fill="#33AEE9"/>
<path d="M0.987917 6.60402L1.26346 6.72266L1.26376 6.72197L0.987917 6.60402ZM5.98603 1.59418L5.86808 1.31833L5.86739 1.31863L5.98603 1.59418ZM16.2404 3.61219L16.0273 3.82336L16.0282 3.82433L16.2404 3.61219ZM18.2584 6.60402L17.9826 6.72197L17.9829 6.72266L18.2584 6.60402ZM18.4696 13.2799L18.1871 13.1789L18.1864 13.1809L18.4696 13.2799ZM17.0617 15.8963L16.824 15.7133L16.6635 15.9217L16.8491 16.108L17.0617 15.8963ZM23.5146 22.3727L23.3021 22.5845L23.3025 22.5849L23.5146 22.3727ZM23.7845 22.7951L23.504 22.9019L23.5068 22.9087L23.7845 22.7951ZM23.7141 24.0388L23.4517 23.893L23.4478 23.9007L23.7141 24.0388ZM23.2448 24.5315L23.0948 24.2716L23.0875 24.276L23.2448 24.5315ZM15.0671 17.8322L15.2792 17.62L15.0995 17.4403L14.8927 17.5881L15.0671 17.8322ZM12.5329 19.1228L12.4365 18.8387L12.4358 18.8389L12.5329 19.1228ZM5.98603 18.8647L5.86739 19.1402L5.86808 19.1405L5.98603 18.8647ZM0.987917 13.8665L0.712074 13.9845L0.712372 13.9852L0.987917 13.8665ZM2.84168 13.0922L2.56606 13.2107L2.56644 13.2115L2.84168 13.0922ZM4.42559 15.427L4.21346 15.6391L4.42559 15.427ZM6.76039 17.0109L6.64104 17.2861L6.64192 17.2865L6.76039 17.0109ZM12.4742 17.0109L12.3557 16.7353L12.3548 16.7357L12.4742 17.0109ZM14.8207 15.427L14.6098 15.2136L14.6086 15.2149L14.8207 15.427ZM16.4046 13.0922L16.129 12.9737L16.1285 12.9749L16.4046 13.0922ZM16.4046 7.37838L16.1281 7.4948L16.1294 7.49773L16.4046 7.37838ZM14.8207 5.03185L14.6074 5.24276L14.6098 5.2452L14.8207 5.03185ZM12.4742 3.44794L12.3548 3.72319L12.3578 3.72443L12.4742 3.44794ZM6.76039 3.44794L6.87768 3.72406L6.87885 3.72356L6.76039 3.44794ZM4.42559 5.03185L4.63772 5.24398L4.63894 5.24275L4.42559 5.03185ZM2.84168 7.37838L3.11692 7.49773L3.1173 7.49685L2.84168 7.37838ZM5.31727 9.24387L5.09474 9.44521L5.10003 9.45077L5.31727 9.24387ZM5.31727 8.08234L5.10507 7.87014L5.09977 7.87571L5.31727 8.08234ZM5.31727 12.3765L5.0997 12.5832L5.10514 12.5886L5.31727 12.3765ZM5.31727 11.215L5.09996 11.008L5.09481 11.0137L5.31727 11.215ZM11.8876 11.215L11.6703 11.4219L11.6754 11.4271L11.8876 11.215ZM11.8876 12.3765L11.6806 12.1592L11.6754 12.1644L11.8876 12.3765ZM29.7681 2.66185L29.556 2.874L29.5587 2.87668L29.7681 2.66185ZM29.7681 22.4314L29.5587 22.2165L29.556 22.2193L29.7681 22.4314ZM25.1689 23.3465H24.8689V23.6465H25.1689V23.3465ZM24.9695 22.3141L24.69 22.4231L24.6914 22.4266L24.9695 22.3141ZM24.4063 21.4576V21.1576H23.682L24.1942 21.6697L24.4063 21.4576ZM28.325 21L28.5318 21.2174L28.5345 21.2147L28.325 21ZM28.325 4.10497L28.1155 4.31972L28.1183 4.32233L28.325 4.10497ZM13.2955 3.63566H12.9955V3.93566H13.2955V3.63566ZM13.2955 1.7467V1.4467H12.9955V1.7467H13.2955ZM16.9443 21.4576L17.1565 21.2454L17.0686 21.1576H16.9443V21.4576ZM18.8333 23.3465V23.6465H19.5576L19.0454 23.1344L18.8333 23.3465ZM3.94455 22.4314L4.15533 22.2179L4.15394 22.2166L3.94455 22.4314ZM3.01767 16.1779V15.8779H2.71767V16.1779H3.01767ZM4.90663 16.1779H5.20663V15.8779H4.90663V16.1779ZM5.37593 21L5.16373 21.2122L5.16917 21.2174L5.37593 21ZM0.560492 10.2294C0.560492 8.97744 0.795485 7.80958 1.26346 6.72266L0.712372 6.48539C0.210449 7.65114 -0.0395079 8.9002 -0.0395079 10.2294H0.560492ZM1.26376 6.72197C1.73388 5.62249 2.3851 4.6573 3.21807 3.82433L2.7938 3.40006C1.90598 4.28788 1.21185 5.31725 0.712075 6.48608L1.26376 6.72197ZM3.21807 3.82433C4.05138 2.99101 5.01295 2.33977 6.10467 1.86972L5.86739 1.31863C4.70644 1.81849 3.68128 2.51259 2.7938 3.40006L3.21807 3.82433ZM6.10398 1.87002C7.19914 1.40174 8.37119 1.16675 9.62316 1.16675V0.566752C8.29393 0.566752 7.04124 0.81671 5.86808 1.31834L6.10398 1.87002ZM9.62316 1.16675C10.8751 1.16675 12.0472 1.40174 13.1423 1.87002L13.3782 1.31834C12.2051 0.81671 10.9524 0.566752 9.62316 0.566752V1.16675ZM13.1423 1.87002C14.2416 2.34004 15.2025 2.99097 16.0273 3.82336L16.4535 3.40103C15.5731 2.51263 14.5473 1.81822 13.3782 1.31834L13.1423 1.87002ZM16.0282 3.82433C16.8612 4.6573 17.5124 5.62249 17.9826 6.72197L18.5342 6.48608C18.0345 5.31725 17.3403 4.28788 16.4525 3.40006L16.0282 3.82433ZM17.9829 6.72266C18.4508 7.80958 18.6858 8.97744 18.6858 10.2294H19.2858C19.2858 8.9002 19.0359 7.65114 18.5339 6.48539L17.9829 6.72266ZM18.6858 10.2294C18.6858 11.2683 18.5191 12.2508 18.1871 13.1789L18.7521 13.381C19.1084 12.3849 19.2858 11.3337 19.2858 10.2294H18.6858ZM18.1864 13.1809C17.8603 14.1137 17.4061 14.9573 16.824 15.7133L17.2994 16.0793C17.9218 15.2709 18.4062 14.3703 18.7528 13.3789L18.1864 13.1809ZM16.8491 16.108L23.3021 22.5845L23.7271 22.161L17.2742 15.6845L16.8491 16.108ZM23.3025 22.5849C23.3882 22.6705 23.4557 22.7748 23.5041 22.9019L24.0648 22.6883C23.9881 22.4869 23.8758 22.3096 23.7268 22.1606L23.3025 22.5849ZM23.5068 22.9087C23.5623 23.0444 23.5901 23.1856 23.5901 23.3348H24.1901C24.1901 23.1085 24.1474 22.89 24.0621 22.6815L23.5068 22.9087ZM23.5901 23.3348C23.5901 23.5455 23.5427 23.7295 23.4518 23.8931L23.9763 24.1845C24.1201 23.9257 24.1901 23.6403 24.1901 23.3348H23.5901ZM23.4478 23.9007C23.3643 24.0617 23.2479 24.1834 23.0949 24.2717L23.3947 24.7914C23.6484 24.645 23.8449 24.4382 23.9804 24.1769L23.4478 23.9007ZM23.0875 24.276C22.9367 24.3689 22.7577 24.4193 22.5408 24.4193V25.0193C22.8558 25.0193 23.1461 24.9445 23.402 24.787L23.0875 24.276ZM22.5408 24.4193C22.3871 24.4193 22.2475 24.3938 22.1196 24.345L21.906 24.9057C22.1067 24.9822 22.3191 25.0193 22.5408 25.0193V24.4193ZM22.1196 24.345C21.9998 24.2994 21.8823 24.2231 21.7674 24.1082L21.3431 24.5325C21.5099 24.6992 21.6973 24.8262 21.906 24.9057L22.1196 24.345ZM21.7674 24.1082L15.2792 17.62L14.855 18.0443L21.3431 24.5325L21.7674 24.1082ZM14.8927 17.5881C14.1509 18.1179 13.3326 18.5349 12.4365 18.8387L12.6292 19.4069C13.579 19.0849 14.4502 18.6415 15.2415 18.0763L14.8927 17.5881ZM12.4358 18.8389C11.5537 19.1405 10.6168 19.2921 9.62316 19.2921V19.8921C10.6789 19.8921 11.6817 19.7308 12.6299 19.4066L12.4358 18.8389ZM9.62316 19.2921C8.37119 19.2921 7.19914 19.0571 6.10398 18.5888L5.86808 19.1405C7.04124 19.6421 8.29393 19.8921 9.62316 19.8921V19.2921ZM6.10467 18.5891C5.01295 18.1191 4.05138 17.4678 3.21807 16.6345L2.7938 17.0588C3.68128 17.9462 4.70644 18.6403 5.86739 19.1402L6.10467 18.5891ZM3.21807 16.6345C2.38475 15.8012 1.73351 14.8396 1.26346 13.7479L0.712372 13.9852C1.21223 15.1461 1.90633 16.1713 2.7938 17.0588L3.21807 16.6345ZM1.26376 13.7486C0.795484 12.6534 0.560492 11.4814 0.560492 10.2294H-0.0395079C-0.0395079 11.5586 0.21045 12.8113 0.712075 13.9845L1.26376 13.7486ZM1.96678 10.2294C1.96678 11.285 2.16594 12.2798 2.56606 13.2107L3.1173 12.9737C2.75088 12.1212 2.56678 11.2075 2.56678 10.2294H1.96678ZM2.56644 13.2115C2.96452 14.1296 3.51375 14.9394 4.21346 15.6391L4.63772 15.2149C3.99207 14.5692 3.48536 13.8225 3.11691 12.9728L2.56644 13.2115ZM4.21346 15.6391C4.91316 16.3388 5.72301 16.888 6.64104 17.2861L6.87974 16.7357C6.03005 16.3672 5.28336 15.8605 4.63772 15.2149L4.21346 15.6391ZM6.64192 17.2865C7.5728 17.6866 8.56757 17.8858 9.62316 17.8858V17.2858C8.64508 17.2858 7.73134 17.1017 6.87885 16.7353L6.64192 17.2865ZM9.62316 17.8858C10.6787 17.8858 11.6699 17.6866 12.5935 17.2861L12.3548 16.7357C11.5107 17.1017 10.6012 17.2858 9.62316 17.2858V17.8858ZM12.5927 17.2865C13.5186 16.8885 14.3327 16.3393 15.0329 15.6391L14.6086 15.2149C13.9634 15.8601 13.2132 16.3667 12.3557 16.7353L12.5927 17.2865ZM15.0316 15.6403C15.74 14.9401 16.2901 14.1292 16.6808 13.2095L16.1285 12.9749C15.7683 13.8229 15.2624 14.5685 14.6098 15.2136L15.0316 15.6403ZM16.6803 13.2107C17.0804 12.2798 17.2795 11.285 17.2795 10.2294H16.6795C16.6795 11.2075 16.4954 12.1212 16.129 12.9737L16.6803 13.2107ZM17.2795 10.2294C17.2795 9.17385 17.0804 8.18263 16.6799 7.25903L16.1294 7.49773C16.4954 8.34185 16.6795 9.25133 16.6795 10.2294H17.2795ZM16.6811 7.26196C16.2906 6.33439 15.7405 5.51917 15.0316 4.81849L14.6098 5.2452C15.262 5.88987 15.7678 6.639 16.1281 7.4948L16.6811 7.26196ZM15.0341 4.82094C14.3334 4.11212 13.5182 3.562 12.5906 3.17145L12.3578 3.72443C13.2136 4.08476 13.9627 4.59059 14.6074 5.24275L15.0341 4.82094ZM12.5935 3.1727C11.6699 2.7722 10.6787 2.57304 9.62316 2.57304V3.17304C10.6012 3.17304 11.5107 3.35714 12.3548 3.72317L12.5935 3.1727ZM9.62316 2.57304C8.56757 2.57304 7.5728 2.7722 6.64192 3.17232L6.87885 3.72356C7.73134 3.35714 8.64508 3.17304 9.62316 3.17304V2.57304ZM6.6431 3.17182C5.72341 3.56248 4.91248 4.11256 4.21223 4.82094L4.63894 5.24275C5.28404 4.59015 6.02965 4.08428 6.87768 3.72406L6.6431 3.17182ZM4.21346 4.81972C3.51332 5.51985 2.96404 6.33399 2.56606 7.25991L3.1173 7.49685C3.48584 6.63941 3.99251 5.88919 4.63772 5.24398L4.21346 4.81972ZM2.56644 7.25903C2.16594 8.18263 1.96678 9.17385 1.96678 10.2294H2.56678C2.56678 9.25133 2.75088 8.34185 3.11691 7.49773L2.56644 7.25903ZM5.9039 9.19026C5.74816 9.19026 5.63216 9.13951 5.53451 9.03698L5.10003 9.45077C5.31525 9.67675 5.59033 9.79026 5.9039 9.79026V9.19026ZM5.53973 9.0426C5.44233 8.93495 5.39435 8.81166 5.39435 8.65724H4.79435C4.79435 8.95648 4.89498 9.22429 5.09481 9.44515L5.53973 9.0426ZM5.39435 8.65724C5.39435 8.50296 5.44204 8.38657 5.53477 8.28896L5.09977 7.87571C4.89527 8.09098 4.79435 8.35785 4.79435 8.65724H5.39435ZM5.5294 8.29447C5.6259 8.19797 5.74346 8.14769 5.9039 8.14769V7.54769C5.59504 7.54769 5.32151 7.65383 5.10514 7.87021L5.5294 8.29447ZM5.9039 8.14769H13.3424V7.54769H5.9039V8.14769ZM13.3424 8.14769C13.5029 8.14769 13.6204 8.19797 13.7169 8.29447L14.1412 7.87021C13.9248 7.65383 13.6513 7.54769 13.3424 7.54769V8.14769ZM13.7169 8.29447C13.8155 8.39307 13.8637 8.50772 13.8637 8.65724H14.4637C14.4637 8.3531 14.3554 8.08448 14.1412 7.87021L13.7169 8.29447ZM13.8637 8.65724C13.8637 8.80704 13.8151 8.9285 13.7118 9.03698L14.1463 9.45077C14.3558 9.23073 14.4637 8.9611 14.4637 8.65724H13.8637ZM13.7118 9.03698C13.6142 9.13951 13.4981 9.19026 13.3424 9.19026V9.79026C13.656 9.79026 13.9311 9.67675 14.1463 9.45077L13.7118 9.03698ZM13.3424 9.19026H5.9039V9.79026H13.3424V9.19026ZM5.9039 12.3111C5.74346 12.3111 5.6259 12.2609 5.5294 12.1644L5.10514 12.5886C5.32151 12.805 5.59504 12.9111 5.9039 12.9111V12.3111ZM5.53477 12.1699C5.44204 12.0723 5.39435 11.9559 5.39435 11.8016H4.79435C4.79435 12.101 4.89527 12.3679 5.09977 12.5831L5.53477 12.1699ZM5.39435 11.8016C5.39435 11.6472 5.44233 11.5239 5.53973 11.4162L5.09481 11.0137C4.89498 11.2345 4.79435 11.5023 4.79435 11.8016H5.39435ZM5.53451 11.4219C5.63216 11.3193 5.74816 11.2686 5.9039 11.2686V10.6686C5.59033 10.6686 5.31525 10.7821 5.10003 11.0081L5.53451 11.4219ZM5.9039 11.2686H11.3127V10.6686H5.9039V11.2686ZM11.3127 11.2686C11.4574 11.2686 11.5705 11.3171 11.6703 11.4219L12.1048 11.0081C11.8917 10.7844 11.6216 10.6686 11.3127 10.6686V11.2686ZM11.6754 11.4271C11.7849 11.5366 11.8339 11.6564 11.8339 11.8016H12.4339C12.4339 11.4931 12.3187 11.2218 12.0997 11.0028L11.6754 11.4271ZM11.8339 11.8016C11.8339 11.9463 11.7855 12.0594 11.6807 12.1593L12.0945 12.5937C12.3182 12.3807 12.4339 12.1105 12.4339 11.8016H11.8339ZM11.6754 12.1644C11.5768 12.263 11.4622 12.3111 11.3127 12.3111V12.9111C11.6168 12.9111 11.8854 12.8029 12.0997 12.5886L11.6754 12.1644ZM11.3127 12.3111H5.9039V12.9111H11.3127V12.3111ZM27.011 2.0467C28.1934 2.0467 29.0223 2.34031 29.556 2.87398L29.9803 2.44972C29.2937 1.76319 28.2846 1.4467 27.011 1.4467V2.0467ZM29.5587 2.87668C30.0986 3.40283 30.395 4.21901 30.395 5.38383H30.995C30.995 4.1239 30.6736 3.12542 29.9775 2.44702L29.5587 2.87668ZM30.395 5.38383V19.7094H30.995V5.38383H30.395ZM30.395 19.7094C30.395 20.8742 30.0986 21.6904 29.5587 22.2166L29.9775 22.6462C30.6736 21.9678 30.995 20.9693 30.995 19.7094H30.395ZM29.556 22.2193C29.0223 22.7529 28.1934 23.0465 27.011 23.0465V23.6465C28.2846 23.6465 29.2937 23.33 29.9803 22.6435L29.556 22.2193ZM27.011 23.0465H25.1689V23.6465H27.011V23.0465ZM25.4689 23.3465C25.4689 22.9488 25.3952 22.5663 25.2476 22.2015L24.6914 22.4266C24.8097 22.7188 24.8689 23.0247 24.8689 23.3465H25.4689ZM25.249 22.205C25.1083 21.8446 24.8972 21.5242 24.6184 21.2454L24.1942 21.6697C24.416 21.8915 24.5804 22.1422 24.69 22.4231L25.249 22.205ZM24.4063 21.7576H26.9758V21.1576H24.4063V21.7576ZM26.9758 21.7576C27.6071 21.7576 28.1398 21.5902 28.5318 21.2174L28.1183 20.7826C27.8688 21.0199 27.5021 21.1576 26.9758 21.1576V21.7576ZM28.5345 21.2147C28.9316 20.8274 29.1061 20.2764 29.1061 19.6155H28.5061C28.5061 20.1749 28.3599 20.5469 28.1155 20.7853L28.5345 21.2147ZM29.1061 19.6155V5.47769H28.5061V19.6155H29.1061ZM29.1061 5.47769C29.1061 4.81741 28.9318 4.26808 28.5318 3.8876L28.1183 4.32233C28.3596 4.55195 28.5061 4.91777 28.5061 5.47769H29.1061ZM28.5345 3.89023C28.1428 3.50808 27.6091 3.33566 26.9758 3.33566V3.93566C27.5001 3.93566 27.8658 4.07611 28.1155 4.3197L28.5345 3.89023ZM26.9758 3.33566H13.2955V3.93566H26.9758V3.33566ZM13.5955 3.63566V1.7467H12.9955V3.63566H13.5955ZM13.2955 2.0467H27.011V1.4467H13.2955V2.0467ZM6.73692 21.7576H16.9443V21.1576H6.73692V21.7576ZM16.7322 21.6697L18.6212 23.5587L19.0454 23.1344L17.1565 21.2454L16.7322 21.6697ZM18.8333 23.0465H6.70172V23.6465H18.8333V23.0465ZM6.70172 23.0465C5.52809 23.0465 4.69766 22.7534 4.15532 22.2179L3.73377 22.6449C4.42728 23.3296 5.43496 23.6465 6.70172 23.6465V23.0465ZM4.15394 22.2166C3.61413 21.6904 3.31767 20.8742 3.31767 19.7094H2.71767C2.71767 20.9693 3.03913 21.9678 3.73515 22.6462L4.15394 22.2166ZM3.31767 19.7094V16.1779H2.71767V19.7094H3.31767ZM3.01767 16.4779H4.90663V15.8779H3.01767V16.4779ZM4.60663 16.1779V19.6155H5.20663V16.1779H4.60663ZM4.60663 19.6155C4.60663 20.2744 4.77612 20.8245 5.1638 21.2121L5.58806 20.7879C5.35 20.5498 5.20663 20.1768 5.20663 19.6155H4.60663ZM5.16917 21.2174C5.56184 21.5909 6.09905 21.7576 6.73692 21.7576V21.1576C6.20152 21.1576 5.83141 21.0192 5.5827 20.7826L5.16917 21.2174Z" fill="#33AEE9"/>
</svg>
