<svg width="116" height="26" viewBox="0 0 116 26" fill="none" xmlns="http://www.w3.org/2000/svg">
<path d="M111.853 8.054C112.28 7.2845 112.887 6.70311 113.674 6.30981C113.884 6.20224 114.088 6.10876 114.285 6.02939C115.073 5.71113 115.777 6.38324 115.777 7.2332C115.777 8.08316 115.055 8.7316 114.283 9.08804C114.09 9.1775 113.904 9.28597 113.725 9.41344C113.127 9.84094 112.665 10.3796 112.34 11.0294C112.015 11.6621 111.853 12.2691 111.853 12.8505V17.7753C111.853 18.7244 111.083 19.4938 110.134 19.4938C109.185 19.4938 108.416 18.7244 108.416 17.7753V7.43841C108.416 6.48928 109.185 5.71986 110.134 5.71986C111.083 5.71986 111.853 6.48928 111.853 7.43841V8.054Z" fill="#33AEE9"/>
<path d="M103.567 11.6706C103.43 10.7472 103.088 9.99482 102.541 9.41342C101.994 8.83203 101.259 8.54133 100.335 8.54133C99.3947 8.54133 98.6167 8.82348 98.0011 9.38777C97.3855 9.95207 97.0008 10.713 96.8469 11.6706H103.567ZM93.6406 12.671C93.6406 11.3885 93.9057 10.2257 94.4358 9.18258C94.9659 8.12238 95.7354 7.28449 96.7443 6.66889C97.7531 6.0362 98.9416 5.71985 100.31 5.71985C101.609 5.71985 102.678 5.9849 103.516 6.51499C104.371 7.04509 104.952 7.54099 105.26 8.00268C105.568 8.46438 105.85 8.94318 106.106 9.43907C106.602 10.6874 106.833 11.7732 106.799 12.6966C106.784 13.4899 106.13 14.133 105.337 14.133H96.8469C97.1205 14.9025 97.5479 15.5266 98.1293 16.0054C98.7278 16.4842 99.4631 16.7236 100.335 16.7236C101.276 16.7236 101.977 16.5612 102.439 16.2363C103 15.8207 103.8 15.581 104.45 15.8352L104.583 15.8873C105.419 16.2141 105.8 17.2041 105.152 17.8251C104.832 18.1317 104.457 18.4143 104.029 18.673C103.037 19.2715 101.797 19.5708 100.31 19.5708C98.9416 19.5708 97.7531 19.263 96.7443 18.6474C95.7354 18.0147 94.9659 17.1768 94.4358 16.1337C93.9057 15.0906 93.6406 13.9363 93.6406 12.671Z" fill="#33AEE9"/>
<path d="M85.4681 16.7494C86.1008 16.7494 86.6651 16.5699 87.1609 16.2108C87.6739 15.8346 88.0758 15.3301 88.3665 14.6974C88.6572 14.0647 88.8025 13.3637 88.8025 12.5942C88.8025 11.8247 88.6572 11.1321 88.3665 10.5165C88.0758 9.88382 87.6739 9.38793 87.1609 9.02883C86.6651 8.65263 86.1008 8.46453 85.4681 8.46453C84.8012 8.46453 84.1856 8.65263 83.6213 9.02883C83.0741 9.38793 82.638 9.88382 82.3131 10.5165C81.9882 11.1492 81.8258 11.8418 81.8258 12.5942C81.8258 13.3466 81.9882 14.0476 82.3131 14.6974C82.638 15.3301 83.0741 15.8346 83.6213 16.2108C84.1856 16.5699 84.8012 16.7494 85.4681 16.7494ZM78.3374 7.41289C78.3374 6.4496 79.1183 5.6687 80.0816 5.6687C81.0449 5.6687 81.8258 6.4496 81.8258 7.41289V7.56679C82.3559 6.89989 83.0142 6.4211 83.8008 6.1304C84.5874 5.8226 85.2372 5.6687 85.7502 5.6687C87.0327 5.6687 88.1698 5.98505 89.1616 6.61774C90.1534 7.25044 90.9229 8.09688 91.4701 9.15708C92.0173 10.2002 92.2909 11.3459 92.2909 12.5942C92.2909 13.8424 92.0173 14.9967 91.4701 16.0569C90.9229 17.1171 90.1534 17.9635 89.1616 18.5962C88.1698 19.2289 87.0327 19.5453 85.7502 19.5453C85.1859 19.5453 84.519 19.4085 83.7495 19.1349C82.9971 18.8442 82.3559 18.3312 81.8258 17.5959V23.4953C81.8258 24.4586 81.0449 25.2395 80.0816 25.2395C79.1183 25.2395 78.3374 24.4586 78.3374 23.4953V7.41289Z" fill="#33AEE9"/>
<path d="M74.0479 0C75.0112 0 75.7921 0.780899 75.7921 1.74419V17.8523C75.7921 18.8156 75.0112 19.5965 74.0479 19.5965C73.0846 19.5965 72.3037 18.8156 72.3037 17.8523V1.74419C72.3037 0.780898 73.0846 0 74.0479 0Z" fill="#33AEE9"/>
<path d="M67.5578 11.6706C67.421 10.7472 67.079 9.99482 66.5318 9.41342C65.9846 8.83203 65.2493 8.54133 64.326 8.54133C63.3855 8.54133 62.6074 8.82348 61.9918 9.38777C61.3762 9.95207 60.9915 10.713 60.8376 11.6706H67.5578ZM57.6313 12.671C57.6313 11.3885 57.8964 10.2257 58.4265 9.18258C58.9566 8.12238 59.7261 7.28449 60.735 6.66889C61.7439 6.0362 62.9323 5.71985 64.3003 5.71985C65.5999 5.71985 66.6686 5.9849 67.5065 6.51499C68.3615 7.04509 68.9429 7.54099 69.2507 8.00268C69.5585 8.46438 69.8407 8.94318 70.0972 9.43907C70.5931 10.6874 70.8239 11.7732 70.7897 12.6966C70.7747 13.4899 70.1209 14.133 69.3274 14.133H60.8376C61.1112 14.9025 61.5387 15.5266 62.1201 16.0054C62.7186 16.4842 63.4539 16.7236 64.326 16.7236C65.2664 16.7236 65.9675 16.5612 66.4292 16.2363C66.9903 15.8207 67.7902 15.581 68.4406 15.8352L68.5739 15.8873C69.4099 16.2141 69.7909 17.2041 69.1426 17.8251C68.8226 18.1317 68.4482 18.4143 68.0195 18.673C67.0277 19.2715 65.788 19.5708 64.3003 19.5708C62.9323 19.5708 61.7439 19.263 60.735 18.6474C59.7261 18.0147 58.9566 17.1768 58.4265 16.1337C57.8964 15.0906 57.6313 13.9363 57.6313 12.671Z" fill="#33AEE9"/>
<path d="M55.4505 17.7497C55.4505 18.7129 54.6696 19.4938 53.7063 19.4938C52.743 19.4938 51.9621 18.7129 51.9621 17.7497V11.1064H43.0103V17.7497C43.0103 18.7129 42.2294 19.4938 41.2662 19.4938C40.3029 19.4938 39.522 18.7129 39.522 17.7497V2.00066C39.522 1.03737 40.3029 0.25647 41.2662 0.25647C42.2294 0.25647 43.0103 1.03737 43.0103 2.00066V8.13097H51.9621V2.00066C51.9621 1.03737 52.743 0.25647 53.7063 0.25647C54.6696 0.25647 55.4505 1.03737 55.4505 2.00066V17.7497Z" fill="#33AEE9"/>
<path d="M19.0048 15.2617C19.6949 14.7027 20.6878 14.8088 21.3758 15.3703C21.7495 15.6753 22.1232 15.9213 22.497 16.1081C23.2494 16.4672 23.9761 16.6468 24.6772 16.6468C25.8913 16.6468 26.8232 16.3817 27.473 15.8516C28.1228 15.3044 28.4477 14.6375 28.4477 13.8509C28.4477 13.3892 28.2767 13.0045 27.9347 12.6967C27.6098 12.3889 27.1909 12.141 26.6779 11.9529C26.182 11.7648 25.4809 11.5425 24.5746 11.286C23.2408 10.9098 22.155 10.5421 21.3171 10.183C20.4792 9.80682 19.7524 9.25107 19.1368 8.51578C18.5383 7.78048 18.2391 6.80579 18.2391 5.5917C18.2391 4.5315 18.5554 3.59101 19.1881 2.77021C19.8208 1.93232 20.6502 1.29107 21.6762 0.846475C22.7022 0.384779 23.788 0.153931 24.9337 0.153931C26.8453 0.153931 28.5095 0.746486 29.9264 1.9316C30.6223 2.5136 30.5064 3.56909 29.7973 4.13491C29.1059 4.68666 28.1205 4.54946 27.4221 4.00663C27.2433 3.86769 27.0636 3.74625 26.8831 3.64231C26.3359 3.30031 25.6861 3.12931 24.9337 3.12931C23.9932 3.12931 23.2237 3.37726 22.6252 3.87316C22.0267 4.35195 21.7275 4.9248 21.7275 5.5917C21.7275 6.05339 21.8985 6.44669 22.2405 6.77159C22.5996 7.09649 23.0442 7.37008 23.5743 7.59238C24.1044 7.79758 24.8226 8.03698 25.7289 8.31058C27.0284 8.70387 28.0886 9.08862 28.9094 9.46482C29.7473 9.84102 30.457 10.3882 31.0384 11.1064C31.6369 11.8075 31.9361 12.7223 31.9361 13.8509C31.9361 14.9111 31.6198 15.8858 30.9871 16.775C30.3715 17.6471 29.5079 18.3397 28.3964 18.8527C27.302 19.3657 26.0623 19.6222 24.6772 19.6222C23.5657 19.6222 22.3944 19.3999 21.1632 18.9553C20.381 18.6578 19.6201 18.19 18.8805 17.5519C18.1719 16.9405 18.2775 15.8508 19.0048 15.2617Z" fill="#33AEE9"/>
<path d="M9.49044 19.699C7.60945 19.699 5.95076 19.263 4.51437 18.3909C3.07798 17.5017 1.96649 16.3133 1.17989 14.8256C0.393298 13.3208 0 11.6706 0 9.87516C0 8.07967 0.384746 6.43808 1.15424 4.95039C1.94084 3.4456 3.05233 2.25715 4.48872 1.38506C5.92511 0.495867 7.57525 0.0512695 9.43914 0.0512695C10.7558 0.0512695 11.9956 0.307768 13.1584 0.820764C13.8805 1.12429 14.5419 1.50469 15.1423 1.96196C15.786 2.45212 15.7801 3.38432 15.2274 3.97515C14.5764 4.6711 13.4498 4.58929 12.6544 4.06428C12.4494 3.92895 12.2326 3.80537 12.0041 3.69354C11.2004 3.28315 10.3454 3.07795 9.43914 3.07795C8.25925 3.07795 7.21615 3.3943 6.30986 4.02699C5.40356 4.65969 4.70247 5.49758 4.20657 6.54068C3.72777 7.56667 3.48838 8.67816 3.48838 9.87516C3.48838 11.0892 3.73632 12.2178 4.23222 13.2609C4.72812 14.2869 5.42921 15.1163 6.33551 15.749C7.2418 16.3646 8.29345 16.6724 9.49044 16.6724C10.4309 16.6724 11.2603 16.4757 11.9785 16.0824C12.1879 15.9704 12.3876 15.8494 12.5776 15.7193C13.335 15.2009 14.3956 15.1088 15.0623 15.7396C15.6955 16.3388 15.7287 17.3528 15.0385 17.8854C13.419 19.1355 11.5696 19.7401 9.49044 19.699Z" fill="#33AEE9"/>
</svg>
